<?xml version="1.0" encoding="utf-8"?>
<!-- Generator: Adobe Illustrator 19.2.1, SVG Export Plug-In . SVG Version: 6.00 Build 0)  -->
<svg version="1.1" id="Layer_4" xmlns="http://www.w3.org/2000/svg" xmlns:xlink="http://www.w3.org/1999/xlink" x="0px" y="0px"
	 viewBox="0 0 48 48" style="enable-background:new 0 0 48 48;" xml:space="preserve">
<style type="text/css">
	.st0{fill:#DC4A38;}
	.st1{fill:#FFFFFF;}
</style>
<circle class="st0" cx="24" cy="24" r="24"/>
<g>
	<path class="st1" d="M22.2,11.8h6.5l-2,1.2h-2c0.7,0.4,1.3,1.1,1.6,1.9c0.4,0.8,0.6,1.6,0.6,2.5c0,0.7-0.1,1.4-0.3,2
		c-0.2,0.6-0.5,1-0.8,1.4c-0.3,0.4-0.7,0.7-1,1c-0.3,0.3-0.6,0.6-0.8,0.9c-0.2,0.3-0.3,0.6-0.3,1c0,0.3,0.1,0.5,0.2,0.8
		c0.2,0.3,0.4,0.5,0.6,0.7c0.3,0.2,0.6,0.5,0.9,0.7c0.3,0.2,0.6,0.5,0.9,0.8c0.3,0.3,0.6,0.6,0.9,1c0.3,0.4,0.5,0.8,0.6,1.3
		c0.2,0.5,0.2,1,0.2,1.6c0,1.6-0.7,3-2.1,4.2c-1.5,1.3-3.6,1.9-6.3,1.9c-0.6,0-1.2-0.1-1.8-0.2c-0.6-0.1-1.2-0.3-1.8-0.5
		c-0.6-0.2-1.1-0.5-1.6-0.9c-0.5-0.3-0.8-0.8-1.1-1.3c-0.3-0.6-0.5-1.2-0.5-1.8c0-0.6,0.2-1.3,0.5-2c0.3-0.6,0.8-1.2,1.4-1.6
		c0.6-0.5,1.4-0.8,2.2-1.1c0.8-0.2,1.6-0.4,2.3-0.5c0.7-0.1,1.5-0.2,2.2-0.2c-0.6-0.8-1-1.6-1-2.2c0-0.1,0-0.2,0-0.3
		c0-0.1,0-0.2,0.1-0.3c0-0.1,0.1-0.2,0.1-0.3c0.1-0.1,0.1-0.2,0.1-0.3c-0.4,0.1-0.7,0.1-1,0.1c-1.5,0-2.8-0.5-3.8-1.5
		c-1.1-1-1.6-2.2-1.6-3.7c0-1.4,0.5-2.6,1.4-3.7c0.9-1.1,2.1-1.8,3.5-2.1C20.4,11.9,21.3,11.8,22.2,11.8 M24.2,18.9
		c0-0.6-0.1-1.2-0.3-1.9c-0.2-0.7-0.4-1.3-0.7-1.9c-0.3-0.6-0.7-1.1-1.3-1.6c-0.5-0.4-1.1-0.6-1.8-0.6c-0.9,0-1.6,0.3-2.1,1
		c-0.5,0.7-0.8,1.5-0.8,2.5c0,0.5,0.1,1,0.2,1.5c0.1,0.5,0.3,1,0.5,1.5c0.2,0.5,0.5,1,0.8,1.4c0.3,0.4,0.7,0.7,1.2,1
		c0.5,0.2,0.9,0.4,1.5,0.4c1,0,1.7-0.3,2.1-0.9C24,20.7,24.2,19.9,24.2,18.9 M26,31.7c0-0.2,0-0.4-0.1-0.6c0-0.2-0.1-0.4-0.1-0.5
		c0-0.2-0.1-0.3-0.3-0.5c-0.1-0.2-0.2-0.3-0.3-0.5c-0.1-0.1-0.2-0.3-0.4-0.4c-0.2-0.2-0.3-0.3-0.4-0.4c-0.1-0.1-0.3-0.2-0.5-0.4
		c-0.2-0.2-0.4-0.3-0.5-0.3c-0.1-0.1-0.3-0.2-0.5-0.4c-0.2-0.2-0.4-0.3-0.4-0.3c-0.2,0-0.4,0-0.7,0c-0.5,0-1.1,0-1.6,0.1
		c-0.5,0.1-1.1,0.2-1.6,0.4c-0.6,0.2-1,0.4-1.5,0.7c-0.4,0.3-0.7,0.7-1,1.1c-0.3,0.5-0.4,1-0.4,1.6c0,0.7,0.2,1.3,0.5,1.8
		c0.4,0.5,0.8,0.9,1.4,1.3c0.6,0.3,1.2,0.5,1.8,0.7c0.6,0.1,1.3,0.2,1.9,0.2c0.6,0,1.1-0.1,1.7-0.2c0.5-0.1,1-0.3,1.5-0.6
		c0.5-0.3,0.8-0.6,1.1-1.1C25.8,32.9,26,32.3,26,31.7"/>
</g>
<polygon class="st1" points="38.1,21.9 38.1,23.6 34.7,23.6 34.7,27 33,27 33,23.6 29.6,23.6 29.6,21.9 33,21.9 33,18.5 34.7,18.5 
	34.7,21.9 "/>
</svg>
