<svg id="Layer_1" data-name="Layer 1" xmlns="http://www.w3.org/2000/svg" width="240" height="69" viewBox="0 0 240 69"><defs><style>.cls-1{fill:#5d5e5e;}.cls-2,.cls-3{fill:#708a63;}.cls-2{stroke:#708a63;stroke-miterlimit:10;stroke-width:0.24px;}.cls-4{fill:#fff;}</style></defs><title>Artboard 1</title><path class="cls-1" d="M81.25,39.82H92.89c6.76,0,10.34,3.33,10.34,8.93a8.75,8.75,0,0,1-4,7.74c-1.75,1.09-4.2,1.4-7.43,1.4H81.25ZM90.89,54.5c5.33,0,8-1.33,8-5.82,0-3.68-2-5.64-6-5.64H85.46V54.5Z"/><path class="cls-1" d="M110.93,39.82h18.5V42.9h-14.3v4h8.34V50h-8.34v4.48H129.6v3.4H110.93Z"/><path class="cls-1" d="M137.35,39.82h2.87l12.72,10.65a15.64,15.64,0,0,1,2.07,2c-.11-1.51-.17-2.56-.17-3.12v-9.5h3.78v18h-2.87L142.47,46.75a14.84,14.84,0,0,1-1.47-1.5c.14,1.4.17,2.35.17,2.87V57.9h-3.78Z"/><path class="cls-1" d="M176.24,57.9H172V43h-8.3V39.82h20.85V43h-8.34Z"/><path class="cls-1" d="M194.06,39.82h4.06L208.49,57.9h-4.73l-2.17-4H190.13l-2.1,4h-4.2Zm5.78,10.86-3.89-7.36-4,7.36Z"/><path class="cls-1" d="M214.31,39.82h4.2V54.5h13.56v3.4H214.31Z"/><path class="cls-2" d="M94.37,27.75a18.35,18.35,0,0,0,.14,2.46h-.3a3.24,3.24,0,0,0-1.43.25q-.2.07-1.5.75A8.22,8.22,0,0,1,82.11,30a7,7,0,0,1-2.21-5.46c0-4.94,3.35-8.4,8.12-8.4a7.66,7.66,0,0,1,4.76,1.43l.5-1h.25l-.25,4.62h-.5a4.35,4.35,0,0,0-4.22-4.47H88.2c-3.53,0-5.44,2.73-5.44,7.76,0,4.41,1.93,7,5.21,7,2.55,0,3.94-1.23,3.94-3.46,0-1.5-.45-1.93-2-2v-.6h6V26C94.75,26,94.37,26.4,94.37,27.75Z"/><path class="cls-2" d="M111.5,31.64h-1.75l-.86-1-1-1.3L105.18,26l-.57-.64c-.57-.64-.68-.71-1.25-.71H103v3c0,3.14.16,3.44,1.73,3.53h.48v.6c-1.5-.07-2.62-.09-3.37-.09s-1.89,0-3.41.09V31.2h.48c1.57-.09,1.73-.39,1.73-3.53V20.55c0-3.12-.16-3.44-1.73-3.5h-.48v-.52h7c2,0,2.75.16,3.62.71a3.8,3.8,0,0,1-.52,6.53,5.8,5.8,0,0,1-2.07.55l5.08,5.8a2.89,2.89,0,0,0,2.09,1.14v.49C112.55,31.66,112,31.64,111.5,31.64Zm-6.83-14.56a4.64,4.64,0,0,0-1.52.09c-.14.09-.18.25-.18.55v6.37h.64c2,0,3.44-.5,3.94-1.39a4.07,4.07,0,0,0,.41-1.93c0-2.38-1.19-3.7-3.29-3.7Z"/><path class="cls-2" d="M127.9,31.25v.5H115.28V31.2h.48c1.57-.09,1.73-.39,1.73-3.53V20.55c0-3.12-.16-3.44-1.73-3.5h-.48v-.52h11.47V20h-.48a3.84,3.84,0,0,0-.84-2c-.59-.59-1.25-.75-3-.75h-2.26c-.23,0-.32.07-.34.2v6.14h.5c2.12,0,3-.77,3.21-2.68V20.7h.57v.39L124,23.57v3.17h-.57c-.25-1.93-1-2.55-3-2.55h-.75v4.1c0,2.34.61,2.87,3.32,2.87,1.71,0,2.46-.14,3.1-.59a3.09,3.09,0,0,0,1.23-2.48H128C127.9,29.54,127.9,29.93,127.9,31.25Z"/><path class="cls-2" d="M143.17,31.25v.5H130.52V31.2H131c1.57-.09,1.73-.39,1.73-3.53V20.55c0-3.12-.16-3.44-1.73-3.5h-.48v-.52H142V20h-.48a3.84,3.84,0,0,0-.84-2c-.59-.59-1.25-.75-3-.75h-2.21c-.23,0-.32.07-.34.2v6.14h.5c2.12,0,3-.77,3.21-2.68V20.7h.57v.39l-.07,2.48v3.17h-.57c-.25-1.93-1-2.55-3-2.55H135v4.1c0,2.34.61,2.87,3.32,2.87,1.71,0,2.46-.14,3.1-.59a3.09,3.09,0,0,0,1.23-2.48h.55C143.17,29.54,143.17,29.93,143.17,31.25Z"/><path class="cls-2" d="M160.25,17.75a17.13,17.13,0,0,0-.36,4V32h-.64l-1.39-1.73-2-2.39-7.31-8.81v8.06c0,2.18.23,3.28.75,3.66.36.27.52.3,1.61.36v.58c-1.21-.07-2.09-.09-2.68-.09s-1.43,0-2.55.09V31.2H146c1.62-.09,1.82-.59,1.82-4V18.32A2.5,2.5,0,0,0,145.31,17v-.52h4l9.81,11.86V21.62a10.34,10.34,0,0,0-.43-3.89c-.34-.61-.59-.71-1.82-.73v-.52q1.67.07,2.53.07t2.46-.07V17C160.75,17,160.48,17.16,160.25,17.75Z"/><path class="cls-2" d="M184.92,20c-.21-2.23-.89-2.82-3.25-2.82-2.09,0-2.18,0-2.18.73v10.4c0,2.37.25,2.66,2.57,2.84v.57c-1.71-.07-3-.09-3.85-.09s-2,0-3.69.09V31.2c2.34-.14,2.6-.39,2.6-2.84V17.94c0-.59-.21-.71-1.34-.71h-1.32c-2.18,0-2.73.55-2.89,2.8h-.5V16.48h12.75l1.5-.07.16,3.55Z"/><path class="cls-2" d="M200.82,31.64h-1.75l-.86-1-1-1.3L194.5,26l-.57-.64c-.57-.64-.68-.71-1.25-.71h-.36v3c0,3.14.16,3.44,1.73,3.53h.48v.6c-1.5-.07-2.62-.09-3.37-.09s-1.89,0-3.41.09V31.2h.48c1.57-.09,1.73-.39,1.73-3.53V20.55c0-3.12-.16-3.44-1.73-3.5h-.48v-.52h7c2,0,2.75.16,3.62.71a3.8,3.8,0,0,1-.52,6.53,5.8,5.8,0,0,1-2.07.55l5.07,5.8a2.89,2.89,0,0,0,2.09,1.14v.49C201.86,31.66,201.34,31.64,200.82,31.64ZM194,17.07a4.65,4.65,0,0,0-1.53.09c-.14.09-.18.25-.18.55v6.37h.64c2,0,3.44-.5,3.94-1.39a4.07,4.07,0,0,0,.41-1.93C197.27,18.39,196.08,17.07,194,17.07Z"/><path class="cls-2" d="M217.22,31.25v.5H204.57V31.2h.48c1.57-.09,1.73-.39,1.73-3.53V20.55c0-3.12-.16-3.44-1.73-3.5h-.48v-.52H216V20h-.48a3.84,3.84,0,0,0-.84-2c-.59-.59-1.25-.75-3-.75h-2.21c-.23,0-.32.07-.34.2v6.14h.5c2.12,0,3-.77,3.21-2.68V20.7h.57v.39l-.07,2.48v3.17h-.57c-.25-1.93-1-2.55-3-2.55h-.75v4.1c0,2.34.61,2.87,3.32,2.87,1.71,0,2.46-.14,3.1-.59a3.1,3.1,0,0,0,1.23-2.48h.55C217.22,29.54,217.22,29.93,217.22,31.25Z"/><path class="cls-2" d="M232.49,31.25v.5H219.84V31.2h.48c1.57-.09,1.73-.39,1.73-3.53V20.55c0-3.12-.16-3.44-1.73-3.5h-.48v-.52h11.47V20h-.48a3.84,3.84,0,0,0-.84-2c-.59-.59-1.25-.75-3-.75h-2.21c-.23,0-.32.07-.34.2v6.14h.5c2.12,0,3-.77,3.21-2.68V20.7h.57v.39l-.07,2.48v3.17h-.57c-.25-1.93-1-2.55-3-2.55h-.75v4.1c0,2.34.61,2.87,3.32,2.87,1.71,0,2.46-.14,3.1-.59A3.1,3.1,0,0,0,232,28.09h.55C232.49,29.54,232.49,29.93,232.49,31.25Z"/><circle class="cls-3" cx="35.77" cy="34.31" r="32.28"/><path class="cls-4" d="M61.47,31.17l-4.24-1.42L57.35,24l-.86-2.76-1.58-1v-3l-2.49-1.15-6-2.95-2.59.9-1.41-3.46-1-.87-1.64.75L36.66,9.19,34,11.09l-3.07,1.16-5-.77-1.29.36L22.8,16.29l-2.55,1.52-3.1,1-1.36,4.43-.32,1.18L12,27.13l-1.3,2.68-.11,3.33L8.76,37.21l2.59,5.67L16,44.58l1.56-2.51,3.28.61,2.42,2.18,2.37-1.11L31,45.24l.94,2.6,3,5.15L35,55.75,18.86,57.39H54.19L38.57,55.75,37.3,49.62l4.06-5.45H56.21l6.2-2.2-1.79-3.53,2.73-1.81.21-3.73-2.1-1.71ZM35.29,50l-3.66-6.21L33,42.6l.13-1.65,1.77,3.5L35,48Zm.25-6.64-.43-2.77,1-.69h1l-1.59,3.47Zm2.65,1.77-1.73,3.15V43.79l1.1-3.27,1,1.69-.4,3Zm3.31-4.31-1.6,1.69-.5-1.5,1.31-.42.78.23Z"/></svg>