<?xml version="1.0" encoding="utf-8"?>
<!-- Generator: Adobe Illustrator 21.0.2, SVG Export Plug-In . SVG Version: 6.00 Build 0)  -->
<svg version="1.1" id="Layer_1" xmlns="http://www.w3.org/2000/svg" xmlns:xlink="http://www.w3.org/1999/xlink" x="0px" y="0px"
	 viewBox="0 0 240 69" style="enable-background:new 0 0 240 69;" xml:space="preserve">
<style type="text/css">
	.st0{fill:#FFFFFF;}
</style>
<title>Artboard 1</title>
<path class="st0" d="M81.2,39.8h11.6c6.8,0,10.3,3.3,10.3,8.9c0.1,3.1-1.4,6.1-4,7.7c-1.8,1.1-4.2,1.4-7.4,1.4H81.2V39.8z
	 M90.9,54.5c5.3,0,8-1.3,8-5.8c0-3.7-2-5.6-6-5.6h-7.4v11.5H90.9z"/>
<path class="st0" d="M110.9,39.8h18.5v3.1h-14.3v4h8.3V50h-8.3v4.5h14.5v3.4h-18.7V39.8z"/>
<path class="st0" d="M137.4,39.8h2.9l12.7,10.7c0.8,0.6,1.4,1.3,2.1,2c-0.1-1.5-0.2-2.6-0.2-3.1v-9.5h3.8v18h-2.9l-13.3-11.1
	c-0.5-0.5-1-1-1.5-1.5c0.1,1.4,0.2,2.3,0.2,2.9v9.8h-3.8L137.4,39.8z"/>
<path class="st0" d="M176.2,57.9H172V43h-8.3v-3.2h20.9V43h-8.3L176.2,57.9z"/>
<path class="st0" d="M194.1,39.8h4.1l10.4,18.1h-4.7l-2.2-4h-11.5l-2.1,4h-4.2L194.1,39.8z M199.8,50.7l-3.9-7.4l-4,7.4H199.8z"/>
<path class="st0" d="M214.3,39.8h4.2v14.7h13.6v3.4h-17.8V39.8z"/>
<path class="st0" d="M94.4,27.8c0,0.8,0,1.6,0.1,2.5h-0.3c-0.5,0-1,0.1-1.4,0.2c-0.1,0-0.6,0.3-1.5,0.8c-3,1.5-6.7,1-9.2-1.2
	c-1.5-1.4-2.3-3.4-2.2-5.5c0-4.9,3.3-8.4,8.1-8.4c1.7-0.1,3.4,0.4,4.8,1.4l0.5-1h0.2l-0.2,4.6h-0.5c0.1-2.4-1.8-4.4-4.2-4.5h-0.4
	c-3.5,0-5.4,2.7-5.4,7.8c0,4.4,1.9,7,5.2,7c2.6,0,3.9-1.2,3.9-3.5c0-1.5-0.4-1.9-2-2v-0.6h6V26C94.8,26,94.4,26.4,94.4,27.8z"/>
<path class="st0" d="M111.5,31.6h-1.8l-0.9-1l-1-1.3l-2.7-3.3l-0.6-0.6c-0.6-0.6-0.7-0.7-1.2-0.7H103v3c0,3.1,0.2,3.4,1.7,3.5h0.5
	v0.6c-1.5-0.1-2.6-0.1-3.4-0.1s-1.9,0-3.4,0.1v-0.6h0.5c1.6-0.1,1.7-0.4,1.7-3.5v-7.1c0-3.1-0.2-3.4-1.7-3.5h-0.5v-0.5h7
	c2,0,2.8,0.2,3.6,0.7c1.7,1.2,2.1,3.6,0.9,5.3c-0.4,0.5-0.9,1-1.5,1.2c-0.6,0.3-1.4,0.5-2.1,0.5l5.1,5.8c0.5,0.7,1.3,1.1,2.1,1.1
	v0.5C112.6,31.7,112,31.6,111.5,31.6z M104.7,17.1c-0.5-0.1-1,0-1.5,0.1c-0.1,0.1-0.2,0.2-0.2,0.5v6.4h0.6c2,0,3.4-0.5,3.9-1.4
	c0.3-0.6,0.4-1.3,0.4-1.9C108,18.4,106.8,17.1,104.7,17.1L104.7,17.1z"/>
<path class="st0" d="M127.9,31.2v0.5h-12.6v-0.5h0.5c1.6-0.1,1.7-0.4,1.7-3.5v-7.1c0-3.1-0.2-3.4-1.7-3.5h-0.5v-0.5h11.5V20h-0.5
	c-0.1-0.7-0.4-1.4-0.8-2c-0.6-0.6-1.2-0.8-3-0.8h-2.3c-0.2,0-0.3,0.1-0.3,0.2v6.1h0.5c2.1,0,3-0.8,3.2-2.7v-0.2h0.6v0.4l-0.1,2.5
	v3.2h-0.6c-0.2-1.9-1-2.5-3-2.5h-0.8v4.1c0,2.3,0.6,2.9,3.3,2.9c1.7,0,2.5-0.1,3.1-0.6c0.8-0.6,1.2-1.5,1.2-2.5h0.7
	C127.9,29.5,127.9,29.9,127.9,31.2z"/>
<path class="st0" d="M143.2,31.2v0.5h-12.6v-0.5h0.5c1.6-0.1,1.7-0.4,1.7-3.5v-7.1c0-3.1-0.2-3.4-1.7-3.5h-0.5v-0.5H142V20h-0.5
	c-0.1-0.7-0.4-1.4-0.8-2c-0.6-0.6-1.2-0.8-3-0.8h-2.2c-0.2,0-0.3,0.1-0.3,0.2v6.1h0.5c2.1,0,3-0.8,3.2-2.7v-0.2h0.6v0.4l-0.1,2.5
	v3.2h-0.6c-0.2-1.9-1-2.5-3-2.5H135v4.1c0,2.3,0.6,2.9,3.3,2.9c1.7,0,2.5-0.1,3.1-0.6c0.8-0.6,1.2-1.5,1.2-2.5h0.6
	C143.2,29.5,143.2,29.9,143.2,31.2z"/>
<path class="st0" d="M160.2,17.8c-0.3,1.3-0.4,2.7-0.4,4V32h-0.6l-1.4-1.7l-2-2.4l-7.3-8.8v8.1c0,2.2,0.2,3.3,0.8,3.7
	c0.4,0.3,0.5,0.3,1.6,0.4v0.6c-1.2-0.1-2.1-0.1-2.7-0.1s-1.4,0-2.6,0.1v-0.5h0.3c1.6-0.1,1.8-0.6,1.8-4v-8.9
	c-0.5-0.9-1.5-1.4-2.5-1.3v-0.5h4l9.8,11.9v-6.7c0.1-1.3,0-2.6-0.4-3.9c-0.3-0.6-0.6-0.7-1.8-0.7v-0.5c1.1,0,2,0.1,2.5,0.1
	s1.4,0,2.5-0.1V17C160.8,17,160.5,17.2,160.2,17.8z"/>
<path class="st0" d="M184.9,20c-0.2-2.2-0.9-2.8-3.2-2.8c-2.1,0-2.2,0-2.2,0.7v10.4c0,2.4,0.2,2.7,2.6,2.8v0.6
	c-1.7-0.1-3-0.1-3.9-0.1s-2,0-3.7,0.1v-0.5c2.3-0.1,2.6-0.4,2.6-2.8V17.9c0-0.6-0.2-0.7-1.3-0.7h-1.3c-2.2,0-2.7,0.5-2.9,2.8h-0.5
	v-3.6h12.8l1.5-0.1l0.2,3.5L184.9,20z"/>
<path class="st0" d="M200.8,31.6h-1.8l-0.9-1l-1-1.3l-2.7-3.3l-0.6-0.6c-0.6-0.6-0.7-0.7-1.2-0.7h-0.4v3c0,3.1,0.2,3.4,1.7,3.5h0.5
	v0.6c-1.5-0.1-2.6-0.1-3.4-0.1s-1.9,0-3.4,0.1v-0.6h0.5c1.6-0.1,1.7-0.4,1.7-3.5v-7.1c0-3.1-0.2-3.4-1.7-3.5h-0.5v-0.5h7
	c2,0,2.8,0.2,3.6,0.7c1.7,1.2,2.1,3.6,0.9,5.3c-0.4,0.5-0.9,1-1.5,1.2c-0.6,0.3-1.4,0.5-2.1,0.5l5.1,5.8c0.5,0.7,1.3,1.1,2.1,1.1
	v0.5C201.9,31.7,201.3,31.6,200.8,31.6z M194,17.1c-0.5-0.1-1,0-1.5,0.1c-0.1,0.1-0.2,0.2-0.2,0.5v6.4h0.6c2,0,3.4-0.5,3.9-1.4
	c0.3-0.6,0.4-1.3,0.4-1.9C197.3,18.4,196.1,17.1,194,17.1z"/>
<path class="st0" d="M217.2,31.2v0.5h-12.6v-0.5h0.5c1.6-0.1,1.7-0.4,1.7-3.5v-7.1c0-3.1-0.2-3.4-1.7-3.5h-0.5v-0.5H216V20h-0.5
	c-0.1-0.7-0.4-1.4-0.8-2c-0.6-0.6-1.2-0.8-3-0.8h-2.2c-0.2,0-0.3,0.1-0.3,0.2v6.1h0.5c2.1,0,3-0.8,3.2-2.7v-0.2h0.6v0.4l-0.1,2.5
	v3.2h-0.6c-0.2-1.9-1-2.5-3-2.5H209v4.1c0,2.3,0.6,2.9,3.3,2.9c1.7,0,2.5-0.1,3.1-0.6c0.8-0.6,1.2-1.5,1.2-2.5h0.6
	C217.2,29.5,217.2,29.9,217.2,31.2z"/>
<path class="st0" d="M232.5,31.2v0.5h-12.7v-0.5h0.5c1.6-0.1,1.7-0.4,1.7-3.5v-7.1c0-3.1-0.2-3.4-1.7-3.5h-0.5v-0.5h11.5V20h-0.5
	c-0.1-0.7-0.4-1.4-0.8-2c-0.6-0.6-1.2-0.8-3-0.8h-2.2c-0.2,0-0.3,0.1-0.3,0.2v6.1h0.5c2.1,0,3-0.8,3.2-2.7v-0.2h0.6v0.4l-0.1,2.5
	v3.2h-0.6c-0.2-1.9-1-2.5-3-2.5h-0.8v4.1c0,2.3,0.6,2.9,3.3,2.9c1.7,0,2.5-0.1,3.1-0.6c0.8-0.6,1.2-1.5,1.2-2.5h0.6
	C232.5,29.5,232.5,29.9,232.5,31.2z"/>
<path class="st0" d="M35.8,2c17.8,0,32.3,14.5,32.3,32.3S53.6,66.6,35.8,66.6S3.5,52.1,3.5,34.3S17.9,2,35.8,2z M61.5,31.2l-4.2-1.4
	l0.1-5.8l-0.9-2.8l-1.6-1v-3l-2.5-1.1l-6-2.9L43.8,14l-1.4-3.5l-1-0.9l-1.6,0.8l-3.1-1.3L34,11.1l-3.1,1.2l-5-0.8l-1.3,0.4l-1.8,4.5
	l-2.5,1.5l-3.1,1l-1.4,4.4l-0.3,1.2L12,27.1l-1.3,2.7l-0.1,3.3l-1.8,4.1l2.6,5.7l4.6,1.7l1.6-2.5l3.3,0.6l2.4,2.2l2.4-1.1l5.4,1.5
	l0.9,2.6l3,5.2l0.1,2.8l-16.1,1.6h35.3l-15.6-1.6l-1.3-6.1l4.1-5.5h14.8l6.2-2.2l-1.8-3.5l2.7-1.8l0.2-3.7L61.5,31.2L61.5,31.2z
	 M35.3,50l-3.7-6.2l1.4-1.2l0.1-1.7l1.8,3.5L35,48L35.3,50z M35.5,43.4l-0.4-2.8l1-0.7h1L35.5,43.4L35.5,43.4z M38.2,45.1l-1.7,3.2
	v-4.5l1.1-3.3l1,1.7L38.2,45.1L38.2,45.1z M41.5,40.8l-1.6,1.7L39.4,41l1.3-0.4L41.5,40.8L41.5,40.8z"/>
</svg>
