<?xml version="1.0" encoding="utf-8"?>
<!-- Generator: Adobe Illustrator 21.0.2, SVG Export Plug-In . SVG Version: 6.00 Build 0)  -->
<svg version="1.1" id="Layer_1" xmlns="http://www.w3.org/2000/svg" xmlns:xlink="http://www.w3.org/1999/xlink" x="0px" y="0px"
	 viewBox="0 0 240 90.5" style="enable-background:new 0 0 240 90.5;" xml:space="preserve">
<style type="text/css">
	.st0{fill:#FFFFFF;}
	.st1{fill:#FFFFFF;stroke:#FFFFFF;stroke-width:0.24;stroke-miterlimit:10;}
</style>
<title>Artboard 1</title>
<path class="st0" d="M5.2,77.7h0.7L8,87.2H7.3l-0.6-2.7H4.3l-0.5,2.7H3.2L5.2,77.7z M6.7,84l-1.1-5.3L4.4,84H6.7z"/>
<path class="st0" d="M10.1,77.8h0.6l2.9,7.9v-7.9h0.6v9.4h-0.6l-3-8.1v8.1h-0.6V77.8z"/>
<path class="st0" d="M16.8,77.8h1.1c1.8,0,3,1.6,3,4.6v0.2c0,3-1.3,4.6-3,4.6h-1.1V77.8z M17.9,86.7c1.4,0,2.4-1.4,2.4-4.1v-0.2
	c0-2.7-1-4.1-2.4-4.1h-0.5v8.4L17.9,86.7z"/>
<path class="st0" d="M23.2,77.8h1.2c1.4-0.1,2.6,1,2.7,2.4c0,0.1,0,0.3,0,0.4l0,0c0.1,1.1-0.6,2.2-1.6,2.7l1.8,4h-0.7l-1.7-3.8
	c-0.2,0-0.4,0-0.5,0h-0.5v3.8h-0.6L23.2,77.8z M24.4,82.9c1.1,0.1,2.1-0.8,2.1-1.9c0-0.1,0-0.3,0-0.4l0,0c0.1-1.1-0.6-2.1-1.7-2.2
	c-0.1,0-0.3,0-0.4,0h-0.5v4.6L24.4,82.9z"/>
<path class="st0" d="M29.4,77.8h3.2v0.5H30v3.9h2.4v0.5H30v4h2.7v0.5h-3.3V77.8z"/>
<path class="st0" d="M34.4,77.8H35l1.3,8.2l1.5-8.2h0.5L40,86l1.3-8.2h0.6l-1.6,9.5h-0.5L38.1,79l-1.5,8.3H36L34.4,77.8z"/>
<path class="st0" d="M47.3,77.8h3.2v0.5h-2.6v3.9h2.4v0.5h-2.4v4h2.7v0.5h-3.3V77.8z"/>
<path class="st0" d="M55.6,86.9v-0.7c0.5,0.4,1.1,0.6,1.7,0.6c0.7,0,1.3-0.5,1.3-1.2c0-0.1,0-0.1,0-0.2l0,0c0-0.8-0.3-1.3-1.3-2.7
	c-1.2-1.7-1.6-2.3-1.6-3.1l0,0c0-1,0.7-1.9,1.8-1.9c0,0,0.1,0,0.1,0c0.5,0,1,0.1,1.4,0.4v0.7c-0.4-0.3-0.9-0.5-1.4-0.5
	c-0.7,0-1.2,0.5-1.2,1.2c0,0,0,0.1,0,0.1l0,0c0,0.7,0.3,1.2,1.3,2.6s1.5,2.2,1.5,3.2l0,0c0.1,1-0.7,1.9-1.7,2c-0.1,0-0.1,0-0.2,0
	C56.7,87.4,56.1,87.2,55.6,86.9z"/>
<path class="st0" d="M61.4,77.8h0.7l1.7,5.3l1.8-5.3h0.7v9.4h-0.6v-8.1l-1.9,5.5h0L62,79.1v8.1h-0.6V77.8z"/>
<path class="st0" d="M69,77.8h0.6v9.4H69V77.8z"/>
<path class="st0" d="M73.1,78.3h-1.5v-0.5h3.7v0.5h-1.5v8.9h-0.6L73.1,78.3z"/>
<path class="st0" d="M77.2,77.8h0.6v4.4h2.9v-4.4h0.6v9.4h-0.6v-4.5h-2.9v4.5h-0.6L77.2,77.8z"/>
<path class="st0" d="M87,77.8h1.1c1.8,0,3,1.6,3,4.6v0.2c0,3-1.3,4.6-3,4.6H87V77.8z M88.1,86.7c1.4,0,2.4-1.4,2.4-4.1v-0.2
	c0-2.7-1-4.1-2.4-4.1h-0.5v8.4L88.1,86.7z"/>
<path class="st0" d="M93.4,77.8h1.1c1.8,0,3,1.6,3,4.6v0.2c0,3-1.3,4.6-3,4.6h-1.1V77.8z M94.6,86.7c1.4,0,2.4-1.4,2.4-4.1v-0.2
	c0-2.7-1-4.1-2.4-4.1H94v8.4L94.6,86.7z"/>
<path class="st0" d="M99.5,86.9v-0.7c0.5,0.4,1.1,0.6,1.7,0.6c0.7,0,1.3-0.5,1.3-1.2c0-0.1,0-0.1,0-0.2l0,0c0-0.8-0.3-1.3-1.3-2.7
	c-1.3-1.7-1.6-2.2-1.6-3.1l0,0c0-1,0.7-1.9,1.8-1.9c0,0,0.1,0,0.1,0c0.5,0,1,0.1,1.4,0.4v0.7c-0.4-0.3-0.9-0.5-1.4-0.5
	c-0.7,0-1.2,0.5-1.2,1.2c0,0,0,0.1,0,0.1l0,0c0,0.7,0.3,1.2,1.3,2.6s1.5,2.2,1.5,3.2l0,0c0.1,1-0.7,1.9-1.7,2c-0.1,0-0.1,0-0.2,0
	C100.5,87.3,100,87.2,99.5,86.9z"/>
<path class="st0" d="M111.4,85L111.4,85c0-1.3,0.6-2.4,1.5-3.1c-0.5-0.7-0.8-1.5-0.9-2.4v-0.1c0-0.9,0.7-1.7,1.6-1.8
	c0.9,0,1.6,0.8,1.5,1.6c0,0,0,0,0,0.1v0.1c-0.1,1-0.6,2-1.5,2.6l1.5,2.8c0.2-0.7,0.3-1.4,0.4-2.2l0.5,0.1c-0.1,0.9-0.3,1.8-0.6,2.6
	l0.9,1.7l-0.5,0.3l-0.7-1.4c-0.3,0.8-1.1,1.3-1.9,1.4C112.1,87.2,111.3,86.2,111.4,85C111.4,85.1,111.4,85,111.4,85z M114.9,85.4
	l-1.7-3.1c-0.8,0.7-1.2,1.6-1.2,2.6V85c0,1,0.5,1.8,1.3,1.8S114.5,86.2,114.9,85.4L114.9,85.4z M114.5,79.4L114.5,79.4
	c0-0.6-0.3-1.2-1-1.2c-0.6,0.1-1.1,0.6-1,1.2c0,0,0,0,0,0l0,0c0.1,0.8,0.3,1.5,0.8,2.2C114,81.1,114.5,80.3,114.5,79.4L114.5,79.4z"
	/>
<path class="st0" d="M124.4,77.8h0.6l1.3,8.2l1.5-8.2h0.5L130,86l1.3-8.2h0.6l-1.6,9.5h-0.6l-1.6-8.3l-1.5,8.2h-0.6L124.4,77.8z"/>
<path class="st0" d="M134.1,77.8h0.6v9.4h-0.6V77.8z"/>
<path class="st0" d="M137.4,77.8h0.6v8.9h2.4v0.5h-3L137.4,77.8z"/>
<path class="st0" d="M142.2,77.8h0.6v8.9h2.4v0.5h-3L142.2,77.8z"/>
<path class="st0" d="M147.1,77.8h0.6v9.4h-0.6V77.8z"/>
<path class="st0" d="M152,77.7h0.6l2.1,9.5h-0.6l-0.6-2.7h-2.5l-0.6,2.7H150L152,77.7z M153.4,84l-1.1-5.4l-1.1,5.3L153.4,84z"/>
<path class="st0" d="M156.9,77.8h0.7l1.7,5.3l1.8-5.3h0.7v9.4h-0.6v-8.1l-1.9,5.5h-0.1l-1.9-5.5v8.1h-0.6L156.9,77.8z"/>
<path class="st0" d="M167.3,82.6v-0.2c0-3.1,1.2-4.7,2.5-4.7c0.3,0,0.6,0.1,0.9,0.2v0.6c-0.3-0.2-0.6-0.3-0.9-0.3
	c-1.1,0-1.9,1.4-1.9,4.1v0.2c0,2.7,0.9,4.1,1.9,4.1c0.4,0,0.7-0.1,1-0.3V87c-0.3,0.2-0.6,0.3-1,0.3
	C168.4,87.3,167.3,85.7,167.3,82.6z"/>
<path class="st0" d="M176.3,77.8h1.1c1.8,0,3,1.6,3,4.6v0.2c0,3-1.3,4.6-3,4.6h-1.1V77.8z M177.4,86.7c1.4,0,2.4-1.4,2.4-4.1v-0.2
	c0-2.7-1-4.1-2.4-4.1h-0.5v8.4L177.4,86.7z"/>
<path class="st0" d="M182.4,82.6v-0.2c0-3.1,1-4.7,2.2-4.7s2.2,1.6,2.2,4.7v0.2c0,3.1-1,4.7-2.2,4.7S182.4,85.7,182.4,82.6z
	 M186.3,82.6v-0.2c0-2.8-0.7-4.2-1.6-4.2s-1.7,1.4-1.7,4.2v0.2c0,2.8,0.7,4.2,1.6,4.2S186.3,85.4,186.3,82.6L186.3,82.6z"/>
<path class="st0" d="M188.7,77.8h0.6l1.3,8.2l1.5-8.2h0.6l1.5,8.2l1.3-8.2h0.6l-1.6,9.5h-0.6l-1.5-8.3l-1.5,8.2h-0.6L188.7,77.8z"/>
<path class="st0" d="M197.8,86.9v-0.7c0.5,0.4,1.1,0.6,1.6,0.6c0.7,0,1.3-0.5,1.3-1.2c0-0.1,0-0.1,0-0.2l0,0c0-0.8-0.3-1.3-1.3-2.7
	c-1.2-1.7-1.6-2.2-1.6-3.1l0,0c0-1,0.7-1.9,1.8-1.9c0,0,0.1,0,0.1,0c0.5,0,1,0.1,1.4,0.4v0.7c-0.4-0.3-0.9-0.5-1.4-0.5
	c-0.7,0-1.2,0.5-1.2,1.2c0,0,0,0.1,0,0.1l0,0c0,0.7,0.3,1.2,1.3,2.6s1.6,2.2,1.6,3.2l0,0c0.1,1-0.7,1.9-1.7,2c-0.1,0-0.1,0-0.2,0
	C198.9,87.4,198.3,87.2,197.8,86.9z"/>
<path class="st0" d="M203.6,77.8h3.2v0.5h-2.6v3.9h2.4v0.5h-2.4v4h2.7v0.5h-3.3V77.8z"/>
<path class="st0" d="M209.9,78.3h-1.5v-0.5h3.7v0.5h-1.5v8.9h-0.6V78.3z"/>
<path class="st0" d="M214.9,78.3h-1.5v-0.5h3.7v0.5h-1.5v8.9H215L214.9,78.3z"/>
<path class="st0" d="M222.2,77.8h1.1c1.8,0,3,1.6,3,4.6v0.2c0,3-1.3,4.6-3,4.6h-1.1V77.8z M223.4,86.7c1.4,0,2.4-1.4,2.4-4.1v-0.2
	c0-2.7-1-4.1-2.4-4.1h-0.5v8.4L223.4,86.7z"/>
<path class="st0" d="M228.6,77.8h1.1c1.8,0,3,1.6,3,4.6v0.2c0,3-1.3,4.6-3,4.6h-1.1V77.8z M229.8,86.7c1.4,0,2.4-1.4,2.4-4.1v-0.2
	c0-2.7-1-4.1-2.4-4.1h-0.5v8.4L229.8,86.7z"/>
<path class="st0" d="M234.7,86.9v-0.7c0.5,0.4,1.1,0.6,1.6,0.6c0.7,0,1.3-0.5,1.3-1.2c0-0.1,0-0.1,0-0.2l0,0c0-0.8-0.3-1.3-1.3-2.7
	c-1.3-1.7-1.6-2.2-1.6-3.1l0,0c0-1,0.7-1.9,1.8-1.9c0,0,0.1,0,0.1,0c0.5,0,1,0.1,1.4,0.4v0.7c-0.4-0.3-0.9-0.5-1.4-0.5
	c-0.7,0-1.2,0.5-1.2,1.2c0,0,0,0.1,0,0.1l0,0c0,0.7,0.3,1.2,1.3,2.6s1.6,2.2,1.6,3.2l0,0c0.1,1-0.7,1.9-1.7,2c-0.1,0-0.1,0-0.2,0
	C235.8,87.4,235.2,87.2,234.7,86.9z"/>
<path class="st0" d="M81.2,40.1h11.6c6.8,0,10.3,3.3,10.3,8.9c0.1,3.1-1.4,6.1-4,7.7c-1.8,1.1-4.2,1.4-7.4,1.4H81.2V40.1z
	 M90.9,54.8c5.3,0,8-1.3,8-5.8c0-3.7-2-5.6-6-5.6h-7.4v11.5H90.9z"/>
<path class="st0" d="M110.9,40.1h18.5v3.1h-14.3v4h8.3v3.1h-8.3v4.5h14.5v3.4h-18.7V40.1z"/>
<path class="st0" d="M137.4,40.1h2.9l12.7,10.7c0.8,0.6,1.4,1.3,2.1,2c-0.1-1.5-0.2-2.6-0.2-3.1v-9.5h3.8v18h-2.9L142.5,47
	c-0.5-0.5-1-1-1.5-1.5c0.1,1.4,0.2,2.3,0.2,2.9v9.8h-3.8L137.4,40.1z"/>
<path class="st0" d="M176.2,58.2H172V43.3h-8.3v-3.2h20.9v3.2h-8.3L176.2,58.2z"/>
<path class="st0" d="M194.1,40.1h4.1l10.4,18.1h-4.7l-2.2-4h-11.5l-2.1,4h-4.2L194.1,40.1z M199.8,50.9l-3.9-7.4l-4,7.4H199.8z"/>
<path class="st0" d="M214.3,40.1h4.2v14.7h13.6v3.4h-17.8V40.1z"/>
<path class="st1" d="M94.4,28c0,0.8,0,1.6,0.1,2.5h-0.3c-0.5,0-1,0.1-1.4,0.2c-0.1,0-0.6,0.3-1.5,0.8c-3,1.5-6.6,1.1-9.2-1.2
	c-1.5-1.4-2.3-3.4-2.2-5.5c0-4.9,3.3-8.4,8.1-8.4c1.7-0.1,3.4,0.4,4.8,1.4l0.5-1h0.2l-0.2,4.6h-0.5c0.1-2.4-1.8-4.4-4.2-4.5
	c-0.1,0-0.2,0-0.4,0c-3.5,0-5.4,2.7-5.4,7.8c0,4.4,1.9,7,5.2,7c2.6,0,3.9-1.2,3.9-3.5c0-1.5-0.4-1.9-2-2v-0.6c1.4,0,2.4,0,3.1,0
	s1.6,0,2.9,0v0.5C94.8,26.2,94.4,26.6,94.4,28z"/>
<path class="st1" d="M111.5,31.9c-0.4,0-1,0-1.8,0l-0.9-1l-1-1.3l-2.7-3.4l-0.6-0.6c-0.6-0.6-0.7-0.7-1.2-0.7H103v3
	c0,3.1,0.2,3.4,1.7,3.5h0.5V32c-1.5-0.1-2.6-0.1-3.4-0.1s-1.9,0-3.4,0.1v-0.5h0.5c1.6-0.1,1.7-0.4,1.7-3.5v-7.1
	c0-3.1-0.2-3.4-1.7-3.5c-0.1,0-0.3,0-0.5,0v-0.5h1.3h2h1.4h1.8h0.5c2,0,2.8,0.2,3.6,0.7c1.7,1.2,2.1,3.6,0.9,5.3
	c-0.4,0.5-0.9,1-1.5,1.2c-0.6,0.3-1.4,0.5-2.1,0.5l5.1,5.8c0.5,0.7,1.3,1.1,2.1,1.1V32C112.6,31.9,112,31.9,111.5,31.9z M104.7,17.3
	c-0.5-0.1-1,0-1.5,0.1c-0.1,0.1-0.2,0.2-0.2,0.5v6.4h0.6c2,0,3.4-0.5,3.9-1.4c0.3-0.6,0.4-1.3,0.4-1.9
	C107.9,18.6,106.8,17.3,104.7,17.3L104.7,17.3z"/>
<path class="st1" d="M127.9,31.5V32H127h-2.8h-6c-1.2,0-1.9,0-2.3,0c-0.2,0-0.4,0-0.7,0v-0.5h0.5c1.6-0.1,1.7-0.4,1.7-3.5v-7.1
	c0-3.1-0.2-3.4-1.7-3.5c-0.1,0-0.3,0-0.5,0v-0.5h1.7h8.3h1.5v3.4h-0.5c-0.1-0.7-0.4-1.4-0.8-2c-0.6-0.6-1.2-0.8-3-0.8h-1.8h-0.4
	c-0.2,0-0.3,0.1-0.3,0.2v6.1h0.5c2.1,0,3-0.8,3.2-2.7v-0.2h0.6v0.4l-0.1,2.5v2.9V27h-0.6c-0.2-1.9-1-2.5-3-2.5h-0.8v4.1
	c0,2.3,0.6,2.9,3.3,2.9c1.7,0,2.5-0.1,3.1-0.6c0.8-0.6,1.2-1.5,1.2-2.5h0.6C127.9,29.8,127.9,30.2,127.9,31.5z"/>
<path class="st1" d="M143.2,31.5V32h-0.9h-2.8h-6c-1.2,0-1.9,0-2.3,0c-0.2,0-0.4,0-0.7,0v-0.5h0.5c1.6-0.1,1.7-0.4,1.7-3.5v-7.1
	c0-3.1-0.2-3.4-1.7-3.5c-0.1,0-0.3,0-0.5,0v-0.5h1.7h8.3h1.5v3.4h-0.5c-0.1-0.7-0.4-1.4-0.8-2c-0.6-0.6-1.2-0.8-3-0.8h-1.8h-0.4
	c-0.2,0-0.3,0.1-0.3,0.2v6.1h0.5c2.1,0,3-0.8,3.2-2.7v-0.2h0.6v0.4l-0.1,2.5v2.9V27h-0.6c-0.2-1.9-1-2.5-3-2.5H135v4.1
	c0,2.3,0.6,2.9,3.3,2.9c1.7,0,2.5-0.1,3.1-0.6c0.8-0.6,1.2-1.5,1.2-2.5h0.6C143.2,29.8,143.2,30.2,143.2,31.5z"/>
<path class="st1" d="M160.2,18c-0.3,1.3-0.4,2.7-0.4,4v10.3h-0.6l-1.4-1.7l-2-2.4l-7.3-8.8v8.1c0,2.2,0.2,3.3,0.8,3.7
	c0.4,0.3,0.5,0.3,1.6,0.4V32c-1.2-0.1-2.1-0.1-2.7-0.1s-1.4,0-2.6,0.1v-0.5h0.4c1.6-0.1,1.8-0.6,1.8-4v-8.9
	c-0.5-0.9-1.5-1.5-2.6-1.3v-0.5c1,0,1.7,0,2.1,0s1.1,0,1.9,0l9.8,11.9v-6.7c0.1-1.3,0-2.6-0.4-3.9c-0.3-0.6-0.6-0.7-1.8-0.7v-0.5
	c1.1,0,2,0.1,2.5,0.1s1.4,0,2.5-0.1v0.5C160.8,17.3,160.5,17.4,160.2,18z"/>
<path class="st1" d="M184.9,20.3c-0.2-2.2-0.9-2.8-3.2-2.8c-2.1,0-2.2,0-2.2,0.7v10.4c0,2.4,0.2,2.7,2.6,2.8V32
	c-1.7-0.1-3-0.1-3.9-0.1s-2,0-3.7,0.1v-0.5c2.3-0.1,2.6-0.4,2.6-2.8V18.2c0-0.6-0.2-0.7-1.3-0.7h-1.3c-2.2,0-2.7,0.5-2.9,2.8h-0.5
	v-3.6h1.5h5.8h5.5l1.5-0.1l0.2,3.5L184.9,20.3z"/>
<path class="st1" d="M200.8,31.9c-0.4,0-1,0-1.8,0l-0.9-1l-1-1.3l-2.7-3.4l-0.6-0.6c-0.6-0.6-0.7-0.7-1.2-0.7h-0.4v3
	c0,3.1,0.2,3.4,1.7,3.5h0.5V32c-1.5-0.1-2.6-0.1-3.4-0.1s-1.9,0-3.4,0.1v-0.5h0.5c1.6-0.1,1.7-0.4,1.7-3.5v-7.1
	c0-3.1-0.2-3.4-1.7-3.5c-0.1,0-0.3,0-0.5,0v-0.5h1.3h2h1.4h1.8h0.5c2,0,2.8,0.2,3.6,0.7c1.7,1.2,2.1,3.6,0.9,5.3
	c-0.4,0.5-0.9,1-1.5,1.2c-0.6,0.3-1.4,0.5-2.1,0.5l5.1,5.8c0.5,0.7,1.3,1.1,2.1,1.1V32C201.9,31.9,201.3,31.9,200.8,31.9z M194,17.3
	c-0.5-0.1-1,0-1.5,0.1c-0.1,0.1-0.2,0.2-0.2,0.5v6.4h0.6c2,0,3.4-0.5,3.9-1.4c0.3-0.6,0.4-1.3,0.4-1.9
	C197.3,18.6,196.1,17.3,194,17.3z"/>
<path class="st1" d="M217.2,31.5V32h-0.9h-2.8h-6c-1.2,0-1.9,0-2.3,0c-0.2,0-0.4,0-0.7,0v-0.5h0.5c1.6-0.1,1.7-0.4,1.7-3.5v-7.1
	c0-3.1-0.2-3.4-1.7-3.5c-0.1,0-0.3,0-0.5,0v-0.5h1.7h8.3h1.5v3.4h-0.5c-0.1-0.7-0.4-1.4-0.8-2c-0.6-0.6-1.2-0.8-3-0.8h-1.8h-0.4
	c-0.2,0-0.3,0.1-0.3,0.2v6.1h0.5c2.1,0,3-0.8,3.2-2.7v-0.2h0.6v0.4l-0.1,2.5v2.9V27h-0.6c-0.2-1.9-1-2.5-3-2.5h-0.8v4.1
	c0,2.3,0.6,2.9,3.3,2.9c1.7,0,2.5-0.1,3.1-0.6c0.8-0.6,1.2-1.5,1.2-2.5h0.6C217.2,29.8,217.2,30.2,217.2,31.5z"/>
<path class="st1" d="M232.5,31.5V32h-0.9h-2.8h-6c-1.2,0-1.9,0-2.3,0c-0.2,0-0.4,0-0.7,0v-0.5h0.5c1.6-0.1,1.7-0.4,1.7-3.5v-7.1
	c0-3.1-0.2-3.4-1.7-3.5c-0.1,0-0.3,0-0.5,0v-0.5h1.7h8.3h1.5v3.4h-0.5c-0.1-0.7-0.4-1.4-0.8-2c-0.6-0.6-1.2-0.8-3-0.8h-1.8h-0.4
	c-0.2,0-0.3,0.1-0.3,0.2v6.1h0.5c2.1,0,3-0.8,3.2-2.7v-0.2h0.6v0.4l-0.1,2.5v2.9V27h-0.6c-0.2-1.9-1-2.5-3-2.5h-0.8v4.1
	c0,2.3,0.6,2.9,3.3,2.9c1.7,0,2.5-0.1,3.1-0.6c0.8-0.6,1.2-1.5,1.2-2.5h0.6C232.5,29.8,232.5,30.2,232.5,31.5z"/>
<path class="st0" d="M35.8,2.3c17.8,0,32.3,14.5,32.3,32.3S53.6,66.8,35.8,66.8S3.5,52.4,3.5,34.6S17.9,2.3,35.8,2.3z M61.5,31.4
	L57.2,30l0.1-5.7l-0.9-2.8l-1.6-1v-3l-2.5-1.1l-6-2.9l-2.6,0.9l-1.4-3.5l-1-0.9l-1.6,0.8l-3.1-1.2L34,11.3l-3.1,1.2l-5-0.8l-1.3,0.4
	l-1.8,4.5l-2.5,1.5l-3.1,1l-1.4,4.4l-0.3,1.2L12,27.4l-1.3,2.7l-0.1,3.3l-1.8,4.1l2.6,5.7l4.6,1.7l1.6-2.5l3.3,0.6l2.4,2.2l2.4-1.1
	l5.4,1.5l0.9,2.6l3,5.2L35,56l-16.1,1.6h35.3L38.6,56l-1.3-6.1l4.1-5.5h14.8l6.2-2.2l-1.8-3.5l2.7-1.8l0.2-3.7L61.5,31.4L61.5,31.4z
	 M35.3,50.3l-3.7-6.2l1.4-1.2l0.1-1.7l1.8,3.5l0.1,3.6L35.3,50.3z M35.5,43.7l-0.4-2.8l1-0.7h1L35.5,43.7L35.5,43.7z M38.2,45.4
	l-1.7,3.2V44l1.1-3.3l1,1.7L38.2,45.4L38.2,45.4z M41.5,41.1l-1.6,1.7l-0.5-1.5l1.3-0.4L41.5,41.1L41.5,41.1z"/>
</svg>
