<svg id="Layer_2" data-name="Layer 2" xmlns="http://www.w3.org/2000/svg" viewBox="0 0 48 48"><defs><style>.cls-1{fill:#b3282d;}.cls-2{fill:#fff;stroke:#bbbdbf;stroke-width:0.5px;}.cls-3{fill:#e6e7e8;}.cls-4{fill:#231f20;}</style></defs><title>yelp_round</title><circle class="cls-1" cx="24" cy="24" r="24"/><path class="cls-2" d="M42,30.2h0ZM28.22,21.3h0ZM44.06,25a5.66,5.66,0,0,0-1.92-.76,4.67,4.67,0,0,0,1.7-.54A1.86,1.86,0,0,0,44.65,22V21.93a6.31,6.31,0,0,0-2.46-3.61,1.87,1.87,0,0,0-1.86.11A5.7,5.7,0,0,0,39,20.07c-0.1-1.69-.3-4.66-0.35-4.94V15.07l0-.06a1.86,1.86,0,0,0-1.37-1.31,7.76,7.76,0,0,0-4.93,1.39,1.87,1.87,0,0,0-.49,1.78l0,0.12,0.06,0.11c0.08,0.16.28,0.49,2,3.22l0.64,1a4.87,4.87,0,0,0-1.94-.64,1.83,1.83,0,0,0-1.6.88h0a3.31,3.31,0,0,0-.38,1.16,3.74,3.74,0,0,0-2.4-1.44,3.91,3.91,0,0,0-2.29.22,2.25,2.25,0,0,0-2.31,0,1.9,1.9,0,0,0-.54.46V21L23,20.47l0-.1A2,2,0,0,0,21.78,19h0a2.28,2.28,0,0,0-2,.17,2.1,2.1,0,0,0-1,2V23a3.71,3.71,0,0,0-.88-1,4.56,4.56,0,0,0-3.65-.7,3.93,3.93,0,0,0-2.09,1l0-.06a2.07,2.07,0,0,0-1.33-1c-1-.27-2.22.06-2.73,1.81l-0.2.67C7.59,23.44,7,22.31,7,22.28a2.09,2.09,0,0,0-2.51-.77A2.16,2.16,0,0,0,3,23.59a2.81,2.81,0,0,0,.16.92l0,0.08,2.4,4.9A2,2,0,0,0,4,31.24a2.11,2.11,0,0,0,0,.25A2,2,0,0,0,4.7,33a3.18,3.18,0,0,0,2.85.56c1.29-.25,2-1,2.56-2.69l0.79-2.49a4.47,4.47,0,0,0,1.17,2.17,4.26,4.26,0,0,0,3.76,1.07,4.28,4.28,0,0,0,3-1.61l0,0.18A2.06,2.06,0,0,0,20,31.47a2.2,2.2,0,0,0,1.86,0,2,2,0,0,0,.78-0.61v0.78a2.12,2.12,0,0,0,1.2,2.06,2.25,2.25,0,0,0,1.89.05,2.05,2.05,0,0,0,1.17-1.3l0-.09L27,31.82V31.59a4.13,4.13,0,0,0,2.31-.42,3.9,3.9,0,0,0,.84-0.59h0.53a2,2,0,0,0,1.93,0h1.53a6.22,6.22,0,0,0,3.28.87,1.86,1.86,0,0,0,1.45-1.18v0A5.43,5.43,0,0,0,39,28.33,5.26,5.26,0,0,0,40.14,30,1.85,1.85,0,0,0,42,30.2a6.15,6.15,0,0,0,2.74-3.48,2.06,2.06,0,0,0,0-.28A1.84,1.84,0,0,0,44.06,25Z" transform="translate(0 0)"/><path class="cls-3" d="M31.92,22.79a5.44,5.44,0,0,0-.27,2.47,2,2,0,0,0,.15.64,0.54,0.54,0,0,0,.46.31,15.21,15.21,0,0,0,2.48-.75l1-.32a0.62,0.62,0,0,0,.44-0.59,0.66,0.66,0,0,0-.4-0.67l-0.72-.29a17.1,17.1,0,0,0-2.69-1.05A0.53,0.53,0,0,0,31.92,22.79Z" transform="translate(0 0)"/><path class="cls-3" d="M37.41,30.34a16.29,16.29,0,0,0,.05-2.59s0-1.06,0-1.07a0.62,0.62,0,0,0-.43-0.6,0.66,0.66,0,0,0-.76.17l-0.5.59a17.27,17.27,0,0,0-1.83,2.23,0.46,0.46,0,0,0,0,.22,0.58,0.58,0,0,0,.14.31A5.35,5.35,0,0,0,37,30.67,0.54,0.54,0,0,0,37.41,30.34Z" transform="translate(0 0)"/><path class="cls-3" d="M41.29,29.5a5.31,5.31,0,0,0,1.92-2.45A0.54,0.54,0,0,0,43,26.54a16.65,16.65,0,0,0-2.45-.85l-1-.34a0.62,0.62,0,0,0-.7.22,0.65,0.65,0,0,0-.07.78L39.19,27a19.33,19.33,0,0,0,1.56,2.43,0.53,0.53,0,0,0,.54.06h0Z" transform="translate(0 0)"/><path class="cls-3" d="M40.11,23.83a18.15,18.15,0,0,0,2.8-.73,0.53,0.53,0,0,0,.22-0.5,0.07,0.07,0,0,0,0,0A5.37,5.37,0,0,0,41.39,20a0.54,0.54,0,0,0-.55,0,16.12,16.12,0,0,0-1.56,2.06L38.64,23a0.62,0.62,0,0,0,0,.74,0.65,0.65,0,0,0,.71.31v0C39.46,24,39.69,23.93,40.11,23.83Z" transform="translate(0 0)"/><path class="cls-3" d="M37.5,21.69h0c0-1-.35-5.61-0.39-5.82a0.54,0.54,0,0,0-.42-0.38,7.26,7.26,0,0,0-3.66,1,0.55,0.55,0,0,0-.16.52c0.07,0.15,3.21,5.08,3.21,5.08,0.46,0.75.84,0.64,1,.6S37.55,22.57,37.5,21.69Z" transform="translate(0 0)"/><path class="cls-1" d="M32.13,22.27a5.46,5.46,0,0,0-.27,2.47,2,2,0,0,0,.15.64,0.53,0.53,0,0,0,.45.31,15,15,0,0,0,2.48-.75l1-.33A0.62,0.62,0,0,0,36.41,24a0.66,0.66,0,0,0-.4-0.67l-0.72-.29A17.4,17.4,0,0,0,32.6,22,0.53,0.53,0,0,0,32.13,22.27Z" transform="translate(0 0)"/><path class="cls-1" d="M37.62,29.81a16.28,16.28,0,0,0,.05-2.59s0-1.06,0-1.07a0.62,0.62,0,0,0-.43-0.6,0.66,0.66,0,0,0-.76.17l-0.5.59a17.24,17.24,0,0,0-1.83,2.23,0.47,0.47,0,0,0,0,.22,0.58,0.58,0,0,0,.14.31,5.36,5.36,0,0,0,2.92,1.07A0.54,0.54,0,0,0,37.62,29.81Z" transform="translate(0 0)"/><path class="cls-1" d="M41.49,29a5.3,5.3,0,0,0,1.92-2.45A0.54,0.54,0,0,0,43.23,26a16.6,16.6,0,0,0-2.45-.85l-1-.34a0.62,0.62,0,0,0-.7.22,0.66,0.66,0,0,0-.07.78l0.4,0.66A19,19,0,0,0,41,28.92a0.52,0.52,0,0,0,.54.06h0Z" transform="translate(0 0)"/><path class="cls-1" d="M40.32,23.31a18.28,18.28,0,0,0,2.8-.73,0.53,0.53,0,0,0,.22-0.5,0.14,0.14,0,0,0,0,0A5.37,5.37,0,0,0,41.6,19.5a0.54,0.54,0,0,0-.55,0,16.13,16.13,0,0,0-1.56,2.06l-0.64.86a0.61,0.61,0,0,0,0,.74,0.65,0.65,0,0,0,.71.31v0A7.87,7.87,0,0,1,40.32,23.31Z" transform="translate(0 0)"/><path class="cls-1" d="M37.71,21.17h0c0-1-.35-5.61-0.39-5.82A0.55,0.55,0,0,0,36.9,15a7.26,7.26,0,0,0-3.66,1,0.56,0.56,0,0,0-.16.52c0.07,0.15,3.21,5.09,3.21,5.09,0.46,0.75.84,0.64,1,.6S37.75,22,37.71,21.17Z" transform="translate(0 0)"/><path class="cls-4" d="M5.59,32a2,2,0,0,0,1.7.23c0.71-.14,1.14-0.45,1.56-1.79l2.09-6.58a1.13,1.13,0,0,0,0-.88,0.77,0.77,0,0,0-.51-0.37c-0.37-.1-0.84-0.09-1.13.91l-1.1,3.74L5.94,23.05a0.78,0.78,0,0,0-1-.32,1,1,0,0,0-.51,1.34l2.73,5.56a2,2,0,0,1,.07.23l0,0.16a0.71,0.71,0,0,1-.2.51,0.68,0.68,0,0,1-.5.17H6.11a0.78,0.78,0,0,0-.76.69A0.72,0.72,0,0,0,5.59,32Z" transform="translate(0 0)"/><path class="cls-4" d="M18.11,25.27a3,3,0,0,0-1.06-2.15,3.3,3.3,0,0,0-2.62-.45,2.83,2.83,0,0,0-2.34,2.79c-0.23,1.9.08,3.33,0.91,4.15a3.05,3.05,0,0,0,2.65.71c1.59-.22,2.31-1.1,2.31-1.65a0.73,0.73,0,0,0-.61-0.77,0.84,0.84,0,0,0-.77.34,2,2,0,0,1-1.77.54,1.32,1.32,0,0,1-.93-0.82s-0.07-.27-0.06-0.24a0.57,0.57,0,0,1,.08-0.59l0,0h3.5A0.76,0.76,0,0,0,18,26.95,2.86,2.86,0,0,0,18.11,25.27Zm-1.79.51H13.41a0.39,0.39,0,0,1-.06-0.45,1.53,1.53,0,0,1,.19-0.48l0.11-.18a1.47,1.47,0,0,1,.83-0.52,1.37,1.37,0,0,1,1.86,1.16C16.4,25.71,16.36,25.78,16.32,25.78Z" transform="translate(0 0)"/><path class="cls-4" d="M21.28,20.24a1,1,0,0,0-.86.08,0.83,0.83,0,0,0-.37.82v8.34s0,0.3.05,0.31a0.77,0.77,0,0,0,.43.48,0.89,0.89,0,0,0,.75,0,0.84,0.84,0,0,0,.48-0.81V21.1l-0.05-.41A0.69,0.69,0,0,0,21.28,20.24Z" transform="translate(0 0)"/><path class="cls-4" d="M28,22.59a2.57,2.57,0,0,0-2.07.4l-0.1.07-0.06,0-0.18.08,0-.19,0-.07v0h0l0-.07a0.85,0.85,0,0,0-1.13-.16,0.77,0.77,0,0,0-.34.82v8.18a0.85,0.85,0,0,0,.45.87,0.94,0.94,0,0,0,.8,0,0.73,0.73,0,0,0,.43-0.46l0.05-.35V30l0.09-.27L26,29.89,26.1,30,26.17,30l0.09,0.05,0.08,0a2.74,2.74,0,0,0,2.34-.1,3,3,0,0,0,1.5-2.8C30.41,24.32,29.74,22.94,28,22.59Zm-0.09,6.12c-1.16,0-1.34-1-1.38-1.8V26.46s0-.34,0-0.35c0.08-1.34.35-1.87,1.06-2a1.23,1.23,0,0,1,1.11.16,2.72,2.72,0,0,1,.57,2.19C29.23,27.81,29,28.71,27.88,28.71Z" transform="translate(0 0)"/><path class="cls-4" d="M31.66,28.9a0.48,0.48,0,1,1-.48.48A0.48,0.48,0,0,1,31.66,28.9Zm0,0.89a0.41,0.41,0,1,0-.41-0.41A0.41,0.41,0,0,0,31.66,29.79Zm-0.18-.69h0.2a0.16,0.16,0,0,1,.2.16,0.14,0.14,0,0,1-.15.15l0.16,0.25H31.81l-0.15-.24h-0.1v0.24H31.48V29.1Zm0.08,0.25h0.1c0.08,0,.15,0,0.15-0.09s-0.07-.09-0.13-0.09H31.55v0.18Z" transform="translate(0 0)"/></svg>